<mxfile host="app.diagrams.net" modified="2025-03-02T13:47:38.692Z" agent="Mozilla/5.0 (Macintosh; Intel Mac OS X 10_15_7) AppleWebKit/537.36 (KHTML, like Gecko) Chrome/133.0.0.0 Safari/537.36" version="24.2.1" etag="GoGEBYk1KhgzHpktTcvV" type="github">
  <diagram name="페이지-1" id="tlW2hgs1FpJzxNaTtXjL">
    <mxGraphModel>
      <root>
        <mxCell id="0" />
        <mxCell id="1" parent="0" />
      </root>
    </mxGraphModel>
  </diagram>
</mxfile>
